<?xml version="1.0" standalone="no"?>
<!DOCTYPE svg PUBLIC "-//W3C//DTD SVG 20010904//EN"
 "http://www.w3.org/TR/2001/REC-SVG-20010904/DTD/svg10.dtd">
<svg version="1.0" xmlns="http://www.w3.org/2000/svg"
 width="260.000000pt" height="260.000000pt" viewBox="0 0 260.000000 260.000000"
 preserveAspectRatio="xMidYMid meet">
<metadata>
Created by potrace 1.14, written by Peter Selinger 2001-2017
</metadata>
<g transform="translate(0.000000,260.000000) scale(0.100000,-0.100000)"
fill="#000000" stroke="none">
<path d="M1690 1845 c-64 -13 -199 -59 -212 -73 -6 -6 34 -147 45 -158 2 -2
28 7 58 20 170 78 370 71 414 -15 35 -66 6 -142 -67 -177 -48 -24 -152 -41
-240 -42 l-58 0 0 -85 0 -85 103 0 c117 0 210 -20 246 -53 79 -73 57 -198 -43
-247 -87 -42 -266 -26 -386 35 l-50 25 -9 -22 c-28 -75 -44 -139 -35 -147 16
-14 116 -50 184 -66 86 -19 259 -19 335 0 85 23 154 65 196 119 45 59 59 104
59 188 0 139 -57 215 -189 254 l-53 16 54 22 c68 28 93 45 124 87 65 89 59
236 -14 312 -87 92 -276 130 -462 92z"/>
<path d="M745 1818 c-21 -51 -365 -1049 -365 -1059 0 -6 46 -8 106 -7 l107 3
37 125 37 125 195 3 195 2 39 -130 38 -130 113 0 112 0 -48 138 c-27 75 -113
323 -192 550 l-143 412 -108 0 -109 0 -14 -32z m259 -625 l7 -23 -145 0 c-80
0 -146 4 -146 8 0 7 45 159 122 417 l21 70 67 -225 c37 -124 70 -235 74 -247z"/>
</g>
</svg>
